<svg xmlns="http://www.w3.org/2000/svg" viewBox="0 0 400 300" width="400" height="300">
<defs>
<radialGradient id="bg" cx="50%" cy="35%" r="75%"><stop offset="0" stop-color="#F5E6D3"/><stop offset="1" stop-color="#C7965E"/></radialGradient>
<linearGradient id="plate" x1="0" y1="0" x2="0" y2="1"><stop offset="0" stop-color="#fdfaf5"/><stop offset="1" stop-color="#e6dccd"/></linearGradient>
<radialGradient id="shine" cx="35%" cy="30%" r="70%"><stop offset="0" stop-color="#fff" stop-opacity=".7"/><stop offset=".4" stop-color="#fff" stop-opacity="0"/></radialGradient>
</defs>
<rect width="400" height="300" fill="url(#bg)"/>
<circle cx="70" cy="60" r="70" fill="#fff" opacity=".08"/><circle cx="350" cy="250" r="90" fill="#fff" opacity=".06"/>
<ellipse cx="200" cy="232" rx="150" ry="34" fill="#000" opacity=".10"/>
<ellipse cx="200" cy="222" rx="150" ry="36" fill="url(#plate)"/>
<ellipse cx="200" cy="216" rx="126" ry="26" fill="#fff" opacity=".55"/>
<circle cx="150" cy="200" r="44" fill="#A8692D"/><circle cx="150" cy="195" r="44" fill="#D9984F"/><ellipse cx="165.1" cy="195.3" rx="5" ry="4" fill="#4A2611"/><ellipse cx="141.1" cy="197.8" rx="5" ry="4" fill="#4A2611"/><ellipse cx="156.7" cy="203.2" rx="5" ry="4" fill="#4A2611"/><ellipse cx="139.6" cy="218.7" rx="5" ry="4" fill="#4A2611"/><ellipse cx="173.1" cy="195.3" rx="5" ry="4" fill="#4A2611"/><ellipse cx="152.0" cy="191.9" rx="5" ry="4" fill="#4A2611"/><ellipse cx="169.7" cy="185.2" rx="5" ry="4" fill="#4A2611"/><circle cx="150" cy="195" r="44" fill="url(#shine)" opacity=".6"/><circle cx="250" cy="200" r="44" fill="#A8692D"/><circle cx="250" cy="195" r="44" fill="#D9984F"/><ellipse cx="257.3" cy="189.8" rx="5" ry="4" fill="#4A2611"/><ellipse cx="241.6" cy="203.7" rx="5" ry="4" fill="#4A2611"/><ellipse cx="268.1" cy="194.9" rx="5" ry="4" fill="#4A2611"/><ellipse cx="241.6" cy="205.1" rx="5" ry="4" fill="#4A2611"/><ellipse cx="249.8" cy="196.5" rx="5" ry="4" fill="#4A2611"/><ellipse cx="270.6" cy="210.3" rx="5" ry="4" fill="#4A2611"/><ellipse cx="243.6" cy="223.1" rx="5" ry="4" fill="#4A2611"/><circle cx="250" cy="195" r="44" fill="url(#shine)" opacity=".6"/><circle cx="200" cy="155" r="44" fill="#A8692D"/><circle cx="200" cy="150" r="44" fill="#D9984F"/><ellipse cx="200.0" cy="158.2" rx="5" ry="4" fill="#4A2611"/><ellipse cx="194.2" cy="149.6" rx="5" ry="4" fill="#4A2611"/><ellipse cx="179.4" cy="171.0" rx="5" ry="4" fill="#4A2611"/><ellipse cx="218.7" cy="133.4" rx="5" ry="4" fill="#4A2611"/><ellipse cx="180.9" cy="129.4" rx="5" ry="4" fill="#4A2611"/><ellipse cx="215.8" cy="143.8" rx="5" ry="4" fill="#4A2611"/><ellipse cx="199.7" cy="148.5" rx="5" ry="4" fill="#4A2611"/><circle cx="200" cy="150" r="44" fill="url(#shine)" opacity=".6"/>
</svg>